<?xml version="1.0" standalone="no"?>
<!DOCTYPE svg PUBLIC "-//W3C//DTD SVG 20010904//EN"
 "http://www.w3.org/TR/2001/REC-SVG-20010904/DTD/svg10.dtd">
<svg version="1.0" xmlns="http://www.w3.org/2000/svg"
 width="512.000000pt" height="512.000000pt" viewBox="0 0 512.000000 512.000000"
 preserveAspectRatio="xMidYMid meet">
<metadata>
Created by potrace 1.11, written by Peter Selinger 2001-2013
</metadata>
<g transform="translate(0.000000,512.000000) scale(0.100000,-0.100000)"
fill="#000000" stroke="none">
<path d="M3935 5110 c-40 -13 -99 -66 -89 -81 4 -8 3 -9 -4 -5 -7 4 -47 -29
-98 -80 l-87 -87 -41 21 c-157 81 -280 116 -411 116 -86 0 -106 -3 -148 -24
-36 -19 -386 -363 -1398 -1375 -743 -742 -1355 -1358 -1361 -1368 -61 -113
-40 -297 59 -524 l45 -102 -116 -116 c-113 -113 -116 -117 -116 -160 0 -24 5
-57 11 -72 55 -134 94 -199 207 -340 80 -99 258 -282 321 -328 19 -14 37 -28
40 -33 11 -15 117 -89 185 -130 88 -53 169 -84 224 -84 42 -1 46 2 161 116
l118 118 49 -25 c157 -80 276 -112 409 -112 85 1 107 4 145 24 29 15 157 135
355 332 l310 308 49 -50 c71 -73 139 -105 246 -115 184 -17 293 -121 299 -285
7 -222 111 -414 288 -536 119 -81 240 -114 398 -108 397 15 684 388 602 780
-59 278 -299 493 -573 512 -94 7 -124 -3 -143 -44 -18 -39 -13 -71 17 -102 23
-25 37 -31 92 -36 255 -26 432 -216 432 -465 0 -133 -44 -235 -142 -331 -183
-179 -466 -175 -648 10 -87 88 -123 176 -137 334 -8 87 -9 91 -35 160 -21 57
-80 141 -129 184 -36 31 -128 79 -176 92 -22 5 -69 13 -105 16 -36 3 -83 15
-105 26 -37 19 -85 72 -85 95 0 5 420 430 934 944 514 514 932 939 929 945 -4
5 -2 7 2 2 11 -9 74 59 91 99 52 123 25 299 -82 529 l-33 73 89 88 c49 48 87
92 83 97 -3 6 -2 7 4 4 13 -8 59 40 73 78 15 41 10 140 -11 198 -9 26 -15 47
-13 47 8 0 -58 123 -95 180 -81 122 -126 175 -241 288 -135 132 -333 258 -459
292 -61 16 -150 21 -186 10z"/>
</g>
</svg>
